<svg width="46" height="10" viewBox="0 0 46 10" fill="none" xmlns="http://www.w3.org/2000/svg">
<path d="M37.6766 10H41.422L37.136 3.91006e-05H33.3906L37.6766 10Z" fill="#713690"/>
<path d="M41.421 10H37.6756L41.9616 3.91006e-05H45.707L41.421 10Z" fill="#713690"/>
<path d="M25.8602 0H29.6056L25.3196 9.99996H21.5742L25.8602 0Z" fill="#BF0246"/>
<path d="M29.6066 0H25.8612L30.1472 9.99996H33.8926L29.6066 0Z" fill="#BF0246"/>
<path d="M5.26255 0H9.00794L4.72195 9.99996H0.976562L5.26255 0Z" fill="#713690"/>
<path d="M13.8348 0H17.5802L13.2942 9.99996H9.54883L13.8348 0Z" fill="#713690"/>
<path d="M9.00893 0H5.26354L9.54954 9.99996H13.2949L9.00893 0Z" fill="#713690"/>
<path fill-rule="evenodd" clip-rule="evenodd" d="M13.834 0H17.5794L19.9927 5.63074L18.1201 9.99996H18.12L13.834 0Z" fill="#713690"/>
</svg>
