<svg width="1139" height="200" viewBox="0 0 1139 200" fill="none" xmlns="http://www.w3.org/2000/svg">
<path fill-rule="evenodd" clip-rule="evenodd" d="M524.539 116.754V35.6542H562.777V93.7782H600.036V84.7492L607.912 78.3402H654.188V86.16H659.403V167.34H668.419V66.2075L676.295 59.8388V49.8425H716.433V109.176H729.795V86.8855V66.9331L733.868 63.6278H781.014V128.645H805.456L819.414 146.703V137.19H830.495V86.8855H854.339V93.7782H878.868V84.7492L886.744 78.3402H933.02V86.16H938.235V108.853H947.251V66.2075L955.127 59.8388V49.8425H995.265V89.7474H1008.63V86.8855V66.9331L1012.7 63.6278H1050.47V43.9172H1089.41V99.9453H1098.16V79.5092L1106.36 72.818H1141.23V117.237H1144.79V195.354H1185.04V168.912V108.853H1230.88V89.7474H1317.57V164.882L1329.3 174.475V43.9172H1368.25V99.9453H1376.99V79.5092L1385.19 72.818H1420.06V208.858H1269.94H1185.04H1141.23H1126.22H991.104H978.373H906.21H847.387H832.918L832.923 208.616H699.541V208.858H554.086L554.088 208.777H524.539H510.417H477.014H-80.8555L-78.5199 78.9451H-46.2025L-40.8796 83.7417V93.7381H-10.8978V125.904H-2.09875V51.5759H18.4866V36.017H63.1335V80.7992H71.9326V15.6614L109.573 31.9459V102.243H123.097L144.226 87.45V65.2403H161.878V38.9998H210.056V70.8028L223.906 79.4691V92.9723H245.903V26.3834L252.367 20.8612H278.275V4.57673H305.867V0.505615H310.593V5.30228H321.727V26.3834H332.916V98.172H341.715V51.5759L374.63 40.8136V118.89H386.416V63.0234H431.661V13.8073H450.454L465.173 23.0781H490.43V71.8912L510.417 84.4672V116.754H524.539Z" fill="#552D63"/>
</svg>
