<svg width="781" height="781" viewBox="0 0 781 781" fill="none" xmlns="http://www.w3.org/2000/svg">
<rect opacity="0.3" y="380.693" width="551.931" height="551.931" rx="100" transform="rotate(-43.6102 0 380.693)" fill="#BF0246"/>
<rect opacity="0.3" x="107" y="383" width="400.281" height="400.281" rx="72.5238" transform="rotate(-43.6102 107 383)" fill="#BF0246"/>
<g filter="url(#filter0_f_405_55747)">
<path d="M445.397 443.636C464.221 424.128 473.632 400.782 473.632 373.597C473.632 346.426 464.221 323.086 445.397 303.578L464.703 283.57C476.77 296.075 485.782 310.164 491.742 325.837C497.688 341.51 500.664 357.434 500.671 373.607C500.664 389.781 497.688 405.704 491.742 421.377C485.782 437.05 476.77 451.14 464.703 463.645L445.397 443.636ZM406.785 403.62C414.829 395.283 418.852 385.279 418.852 373.607C418.852 361.936 414.829 351.931 406.785 343.595L426.091 323.586C439.445 337.425 446.125 354.099 446.131 373.607C446.125 393.115 439.445 409.789 426.091 423.628L406.785 403.62ZM367.691 543.178C346.936 521.669 331.334 495.908 320.883 465.896C310.419 435.883 305.19 405.12 305.197 373.607C305.19 342.094 310.419 311.331 320.883 281.319C331.334 251.306 346.936 225.545 367.69 204.036C370.586 201.035 373.965 199.534 377.826 199.534C381.687 199.534 385.066 201.035 387.962 204.036L427.057 244.553C429.309 246.888 430.596 249.722 430.918 253.057C431.24 256.392 430.435 259.393 428.505 262.061L400.993 303.578C399.063 306.246 396.975 308.33 394.729 309.831C392.47 311.331 389.892 312.081 386.997 312.081L339.938 312.332C335.112 331.34 332.74 351.391 332.824 372.487C332.901 393.576 335.353 414.291 340.179 434.633L385.549 434.633C388.445 434.633 391.424 435.466 394.487 437.134C397.538 438.801 400.028 440.969 401.959 443.636L428.505 485.154C430.274 487.988 431.04 491.03 430.802 494.278C430.557 497.532 429.309 500.327 427.057 502.661L387.962 543.178C385.066 546.179 381.687 547.68 377.826 547.68C373.965 547.68 370.586 546.179 367.691 543.178ZM349.108 283.82H380.963L399.545 256.058L378.067 233.799C372.276 241.469 366.886 249.389 361.899 257.559C356.911 265.729 352.648 274.482 349.108 283.82ZM349.108 462.895C352.648 472.232 356.873 481.112 361.783 489.536C366.687 497.952 372.195 505.829 378.309 513.165L399.545 491.156L381.446 462.894L349.108 462.895Z" fill="#FF005C" fill-opacity="0.22"/>
</g>
<defs>
<filter id="filter0_f_405_55747" x="291.197" y="185.534" width="223.473" height="376.145" filterUnits="userSpaceOnUse" color-interpolation-filters="sRGB">
<feFlood flood-opacity="0" result="BackgroundImageFix"/>
<feBlend mode="normal" in="SourceGraphic" in2="BackgroundImageFix" result="shape"/>
<feGaussianBlur stdDeviation="7" result="effect1_foregroundBlur_405_55747"/>
</filter>
</defs>
</svg>
