<svg width="578" height="202" viewBox="0 0 578 202" fill="none" xmlns="http://www.w3.org/2000/svg">
<path d="M0 0C0 0 147.58 29 291.5 29C435.42 29 578 0 578 0V201.494H0V0Z" fill="url(#paint0_radial_145_102993)"/>
<path d="M91.9867 142.814H58.9823L53.1507 157.951H23.3722L61.3397 71.0976H90.1256L128.093 157.951H97.8183L91.9867 142.814ZM83.9217 121.721L75.4845 99.8835L67.0473 121.721H83.9217ZM191.448 93.8037H166.012V157.951H137.226V93.8037H111.791V71.0976H191.448V93.8037ZM272.201 71.0976V157.951H243.415V93.8037H223.562L223.314 103.854C222.983 116.262 221.991 126.436 220.336 134.377C218.682 142.318 215.787 148.522 211.651 152.988C207.515 157.372 201.601 159.564 193.908 159.564C190.02 159.564 185.884 159.027 181.5 157.951L182.989 134.501C184.065 134.749 185.14 134.873 186.215 134.873C189.276 134.873 191.592 133.632 193.164 131.151C194.818 128.669 195.935 125.361 196.514 121.225C197.093 117.089 197.506 111.671 197.754 104.971L198.871 71.0976H272.201ZM343.252 142.814H310.248L304.416 157.951H274.638L312.605 71.0976H341.391L379.358 157.951H349.084L343.252 142.814ZM335.187 121.721L326.75 99.8835L318.313 121.721H335.187ZM467.404 71.0976V157.951H438.122V125.94H411.074V157.951H381.791V71.0976H411.074V101.869H438.122V71.0976H467.404ZM552.453 93.8037H527.018V157.951H498.232V93.8037H472.796V71.0976H552.453V93.8037Z" fill="white"/>
<defs>
<radialGradient id="paint0_radial_145_102993" cx="0" cy="0" r="1" gradientUnits="userSpaceOnUse" gradientTransform="translate(289 -44.5822) rotate(90) scale(168.713 401.206)">
<stop offset="0.319982" stop-color="#FF711F"/>
<stop offset="0.823529" stop-color="#332B36" stop-opacity="0"/>
</radialGradient>
</defs>
</svg>
