<svg width="181" height="64" viewBox="0 0 181 64" fill="none" xmlns="http://www.w3.org/2000/svg">
<path d="M0.294922 0.510803C0.294922 0.510803 46.4222 9.57496 91.4053 9.57496C136.388 9.57496 180.953 0.510803 180.953 0.510803V63.4892H0.294922V0.510803Z" fill="url(#paint0_radial_405_55128)"/>
<path d="M7.01545 49.3728L18.8825 22.226H27.8797L39.7467 49.3728H30.2841L21.5196 26.5695H25.0874L16.3229 49.3728H7.01545ZM14.0736 44.6415L16.4005 38.0487H28.888L31.2149 44.6415H14.0736ZM42.6013 49.3728V27.3451L44.5792 29.323H34.6512V22.226H59.5487V29.323H49.6207L51.5986 27.3451V49.3728H42.6013ZM60.3176 49.877C59.7488 49.877 59.1413 49.8382 58.4949 49.7606C57.8486 49.6831 57.1634 49.5538 56.4395 49.3728L56.9049 42.0432C57.2668 42.1207 57.603 42.1595 57.9132 42.1595C58.9215 42.1595 59.6713 41.7459 60.1625 40.9185C60.6537 40.0912 60.9898 38.9795 61.1708 37.5834C61.3518 36.1614 61.4681 34.5714 61.5198 32.8133L61.8689 22.226H84.7885V49.3728H75.7913V27.3839L77.7691 29.323H67.8799L69.6639 27.2676L69.5087 32.4642C69.4312 35.0755 69.2502 37.4541 68.9658 39.6C68.7073 41.72 68.2548 43.5556 67.6085 45.1069C66.9621 46.6323 66.0443 47.8086 64.855 48.636C63.6916 49.4633 62.1791 49.877 60.3176 49.877ZM85.1624 49.3728L97.0294 22.226H106.027L117.894 49.3728H108.431L99.6665 26.5695H103.234L94.4698 49.3728H85.1624ZM92.2205 44.6415L94.5474 38.0487H107.035L109.362 44.6415H92.2205ZM135.485 22.226H144.637V49.3728H135.485V22.226ZM127.031 49.3728H117.878V22.226H127.031V49.3728ZM136.106 39.3673H126.41V31.8438H136.106V39.3673ZM154.079 49.3728V27.3451L156.057 29.323H146.129V22.226H171.026V29.323H161.098L163.076 27.3451V49.3728H154.079Z" fill="white"/>
<defs>
<radialGradient id="paint0_radial_405_55128" cx="0" cy="0" r="1" gradientUnits="userSpaceOnUse" gradientTransform="translate(90.6239 -13.4237) rotate(90) scale(52.7324 125.4)">
<stop offset="0.319982" stop-color="#FF711F"/>
<stop offset="0.823529" stop-color="#332B36" stop-opacity="0"/>
</radialGradient>
</defs>
</svg>
