<svg width="29" height="22" viewBox="0 0 29 22" fill="none" xmlns="http://www.w3.org/2000/svg">
<path fill-rule="evenodd" clip-rule="evenodd" d="M11.4676 20.4836C8.8678 22.9059 4.44035 22.2654 2.36738 19.7006C-0.0860791 16.6713 -0.575957 10.93 3.69828 5.79429C5.81836 3.24689 8.3734 1.31546 11.3608 0L12.7386 2.22375C8.48891 4.28742 5.31261 7.08543 4.8625 11.7765C6.7799 11.7765 8.37072 11.7069 9.78765 12.215C11.4008 12.7934 12.3807 13.8663 12.7828 15.0965C13.4208 17.0226 13.1115 18.9518 11.4676 20.4836ZM26.8759 20.4836C24.2761 22.9059 19.8487 22.2654 17.7757 19.7006C15.3222 16.6713 14.8324 10.93 19.1066 5.79429C21.2267 3.24689 23.7817 1.31546 26.7691 0L28.1469 2.22375C23.8972 4.28742 20.7209 7.08543 20.2708 11.7765C22.1882 11.7765 23.779 11.7069 25.196 12.215C26.8092 12.7934 27.789 13.8663 28.1912 15.0965C28.8291 17.0226 28.5199 18.9518 26.8759 20.4836Z" fill="#D2C1C7"/>
</svg>
