<svg width="28" height="22" viewBox="0 0 28 22" fill="none" xmlns="http://www.w3.org/2000/svg">
<path fill-rule="evenodd" clip-rule="evenodd" d="M17.0324 1.51641C19.6322 -0.905928 24.0596 -0.265446 26.1326 2.29943C28.5861 5.32866 29.076 11.07 24.8017 16.2057C22.6816 18.7531 20.1266 20.6845 17.1392 22L15.7614 19.7762C20.0111 17.7126 23.1874 14.9146 23.6375 10.2235C21.7201 10.2235 20.1293 10.2931 18.7124 9.78502C17.0992 9.20655 16.1193 8.13374 15.7172 6.90354C15.0792 4.97737 15.3885 3.04819 17.0324 1.51641ZM1.62411 1.51641C4.22388 -0.905928 8.65132 -0.265446 10.7243 2.29943C13.1778 5.32866 13.6676 11.07 9.39339 16.2057C7.27331 18.7531 4.71828 20.6845 1.7309 22L0.353107 19.7762C4.60276 17.7126 7.77906 14.9146 8.22917 10.2235C6.31177 10.2235 4.72096 10.2931 3.30403 9.78502C1.69084 9.20655 0.710979 8.13374 0.30883 6.90354C-0.329103 4.97737 -0.0198574 3.04819 1.62411 1.51641Z" fill="#D2C1C7"/>
</svg>
