<svg width="36" height="36" viewBox="0 0 36 36" fill="none" xmlns="http://www.w3.org/2000/svg">
<path d="M21.5547 18C21.5547 19.85 20.055 21.3496 18.2051 21.3496C16.3551 21.3496 14.8555 19.8499 14.8555 18C14.8555 16.1501 16.3551 14.6504 18.2051 14.6504C20.055 14.6504 21.5547 16.1501 21.5547 18Z" fill="white"/>
<path d="M26.0388 12.0736C25.8777 11.6371 25.6208 11.2423 25.2871 10.9181C24.963 10.5843 24.5681 10.3275 24.1316 10.1665C23.7775 10.029 23.2457 9.86526 22.2659 9.82069C21.206 9.77236 20.8883 9.7619 18.2052 9.7619C15.5218 9.7619 15.2041 9.77209 14.1445 9.82042C13.1648 9.86526 12.6325 10.0289 12.2788 10.1665C11.8422 10.3274 11.4474 10.5843 11.1233 10.9181C10.7895 11.2423 10.5326 11.6371 10.3713 12.0736C10.2339 12.4277 10.0702 12.9599 10.0256 13.9396C9.97726 14.9992 9.9668 15.3169 9.9668 18.0003C9.9668 20.6834 9.97726 21.0011 10.0256 22.061C10.0702 23.0407 10.2339 23.5727 10.3713 23.9267C10.5325 24.3632 10.7893 24.758 11.123 25.0822C11.4471 25.416 11.842 25.6729 12.2785 25.8339C12.6326 25.9716 13.1648 26.1353 14.1445 26.1799C15.2041 26.2282 15.5215 26.2384 18.2049 26.2384C20.8886 26.2384 21.2063 26.2282 22.2656 26.1799C23.2453 26.1353 23.7776 25.9716 24.1316 25.8339C24.565 25.6667 24.9586 25.4106 25.2871 25.0822C25.6155 24.7537 25.8716 24.3601 26.0388 23.9267C26.1762 23.5726 26.34 23.0408 26.3848 22.061C26.4331 21.0011 26.4433 20.6834 26.4433 18.0003C26.4433 15.3169 26.4331 14.9992 26.3848 13.9396C26.3402 12.9599 26.1765 12.4276 26.0388 12.0736ZM18.2052 23.1601C15.3552 23.1601 13.0449 20.85 13.0449 18C13.0449 15.1501 15.3552 12.84 18.2052 12.84C21.055 12.84 23.3652 15.1501 23.3652 18C23.3652 20.85 21.055 23.1601 18.2052 23.1601ZM23.5693 13.8419C22.9033 13.8419 22.3634 13.3019 22.3634 12.636C22.3634 11.9701 22.9033 11.4301 23.5693 11.4301C24.2352 11.4301 24.7751 11.97 24.7751 12.6359C24.7749 13.3019 24.2352 13.8419 23.5693 13.8419Z" fill="white"/>
<path d="M18.2051 0.5C8.54159 0.5 0.705078 8.33651 0.705078 18C0.705078 27.6635 8.54159 35.5 18.2051 35.5C27.8686 35.5 35.7051 27.6635 35.7051 18C35.7051 8.33651 27.8686 0.5 18.2051 0.5ZM28.1933 22.1429C28.1447 23.2127 27.9746 23.943 27.7262 24.5823C27.4681 25.2498 27.0733 25.856 26.5672 26.3621C26.0611 26.8682 25.4549 27.263 24.7873 27.5212C24.1483 27.7695 23.4178 27.9393 22.3483 27.9882C21.2767 28.0371 20.9344 28.0488 18.2054 28.0488C15.476 28.0488 15.134 28.0371 14.0621 27.9882C12.9927 27.9393 12.2621 27.7695 11.623 27.5212C10.9524 27.2689 10.345 26.8733 9.84309 26.362C9.33195 25.8601 8.93645 25.2527 8.68419 24.5823C8.43584 23.9432 8.26576 23.2127 8.21716 22.1432C8.16773 21.0713 8.15625 20.729 8.15625 18C8.15625 15.271 8.16773 14.9286 8.21688 13.8571C8.26542 12.7873 8.43529 12.057 8.68364 11.4177C8.93599 10.7472 9.33165 10.1398 9.84302 9.63801C10.3449 9.12669 10.9523 8.73109 11.6228 8.47884C12.2621 8.23049 12.9924 8.06068 14.0622 8.01181C15.1337 7.96293 15.476 7.95117 18.2051 7.95117C20.9341 7.95117 21.2765 7.96293 22.348 8.01201C23.4178 8.06068 24.148 8.23049 24.7873 8.47856C25.458 8.73096 26.0654 9.12662 26.5674 9.63794C27.0786 10.1398 27.474 10.7472 27.7262 11.4177C27.9749 12.057 28.1447 12.7873 28.1935 13.8571C28.2424 14.9286 28.2539 15.271 28.2539 18C28.2539 20.729 28.2424 21.0714 28.1933 22.1429Z" fill="white"/>
</svg>
