<svg width="36" height="36" viewBox="0 0 36 36" fill="none" xmlns="http://www.w3.org/2000/svg">
<path fill-rule="evenodd" clip-rule="evenodd" d="M18.2051 0.5C8.54009 0.5 0.705078 8.33502 0.705078 18C0.705078 27.665 8.54009 35.5 18.2051 35.5C27.8701 35.5 35.7051 27.665 35.7051 18C35.7051 8.33502 27.8701 0.5 18.2051 0.5ZM19.63 23.524C19.4575 23.7059 19.1206 23.7426 19.1206 23.7426H18.0049C18.0049 23.7426 15.5435 23.8878 13.3752 21.6725C11.0105 19.2554 8.92253 14.46 8.92253 14.46C8.92253 14.46 8.80202 14.1454 8.93258 13.9939C9.07957 13.8228 9.48037 13.812 9.48037 13.812L12.1472 13.795C12.1472 13.795 12.3983 13.8353 12.5781 13.9653C12.727 14.0728 12.81 14.2727 12.81 14.2727C12.81 14.2727 13.241 15.3427 13.8116 16.3106C14.9263 18.2006 15.4449 18.6138 15.8229 18.4112C16.3743 18.1164 16.2091 15.7397 16.2091 15.7397C16.2091 15.7397 16.2191 14.8776 15.9315 14.4931C15.7088 14.1956 15.2888 14.1087 15.1035 14.0845C14.9528 14.0647 15.1993 13.7224 15.5189 13.5692C15.9991 13.3388 16.8463 13.3254 17.8479 13.3352C18.6285 13.3433 18.8531 13.3908 19.158 13.4634C19.8658 13.631 19.8437 14.1683 19.796 15.3278C19.7817 15.6745 19.7652 16.077 19.7652 16.5418C19.7652 16.6463 19.7621 16.7576 19.7589 16.8722C19.7423 17.4662 19.7234 18.1464 20.1221 18.3996C20.3267 18.5286 20.8261 18.4184 22.0759 16.3357C22.6685 15.3481 23.1122 14.1875 23.1122 14.1875C23.1122 14.1875 23.2099 13.9805 23.3605 13.8918C23.5148 13.8013 23.723 13.829 23.723 13.829L26.5295 13.812C26.5295 13.812 27.3731 13.7125 27.5091 14.0871C27.6525 14.4788 27.1941 15.3947 26.0474 16.8949C24.9597 18.3184 24.4303 18.8425 24.4789 19.306C24.5144 19.6447 24.8585 19.951 25.5188 20.5522C26.8972 21.8085 27.2667 22.4694 27.3555 22.6282C27.3628 22.6413 27.3683 22.6511 27.3722 22.6574C27.9903 23.6638 26.6865 23.7426 26.6865 23.7426L24.1932 23.7767C24.1932 23.7767 23.6581 23.8807 22.9533 23.4057C22.5841 23.1571 22.2233 22.7511 21.8797 22.3643C21.3549 21.7737 20.8701 21.2281 20.4563 21.357C19.7615 21.5739 19.7825 23.0427 19.7825 23.0427C19.7825 23.0427 19.788 23.3573 19.63 23.524Z" fill="white"/>
</svg>
