<svg width="36" height="36" viewBox="0 0 36 36" fill="none" xmlns="http://www.w3.org/2000/svg">
<path fill-rule="evenodd" clip-rule="evenodd" d="M18.2051 0.5C8.54009 0.5 0.705078 8.33502 0.705078 18C0.705078 27.665 8.54009 35.5 18.2051 35.5C27.8701 35.5 35.7051 27.665 35.7051 18C35.7051 8.33502 27.8701 0.5 18.2051 0.5ZM25.498 11.9845C26.3012 12.2049 26.9337 12.8543 27.1484 13.679C27.5385 15.1737 27.5385 18.2923 27.5385 18.2923C27.5385 18.2923 27.5385 21.4108 27.1484 22.9056C26.9337 23.7303 26.3012 24.3797 25.498 24.6002C24.0424 25.0007 18.2052 25.0007 18.2052 25.0007C18.2052 25.0007 12.3679 25.0007 10.9122 24.6002C10.109 24.3797 9.47648 23.7303 9.26181 22.9056C8.87183 21.4108 8.87183 18.2923 8.87183 18.2923C8.87183 18.2923 8.87183 15.1737 9.26181 13.679C9.47648 12.8543 10.109 12.2049 10.9122 11.9845C12.3679 11.584 18.2052 11.584 18.2052 11.584C18.2052 11.584 24.0424 11.584 25.498 11.9845Z" fill="white"/>
<path fill-rule="evenodd" clip-rule="evenodd" d="M16.4551 21.4993V15.666L21.1217 18.5828L16.4551 21.4993Z" fill="white"/>
</svg>
