<svg width="25" height="25" viewBox="0 0 25 25" fill="none" xmlns="http://www.w3.org/2000/svg">
<mask id="mask0_140_67686" style="mask-type:alpha" maskUnits="userSpaceOnUse" x="0" y="0" width="25" height="25">
<rect x="0.5" y="0.275879" width="24" height="24" fill="#D9D9D9"/>
</mask>
<g mask="url(#mask0_140_67686)">
<path d="M9.1 22.7759L7.2 19.5759L3.6 18.7759L3.95 15.0759L1.5 12.2759L3.95 9.47588L3.6 5.77588L7.2 4.97588L9.1 1.77588L12.5 3.22588L15.9 1.77588L17.8 4.97588L21.4 5.77588L21.05 9.47588L23.5 12.2759L21.05 15.0759L21.4 18.7759L17.8 19.5759L15.9 22.7759L12.5 21.3259L9.1 22.7759ZM9.95 20.2259L12.5 19.1259L15.1 20.2259L16.5 17.8259L19.25 17.1759L19 14.3759L20.85 12.2759L19 10.1259L19.25 7.32588L16.5 6.72588L15.05 4.32588L12.5 5.42588L9.9 4.32588L8.5 6.72588L5.75 7.32588L6 10.1259L4.15 12.2759L6 14.3759L5.75 17.2259L8.5 17.8259L9.95 20.2259ZM11.45 15.8259L17.1 10.1759L15.7 8.72588L11.45 12.9759L9.3 10.8759L7.9 12.2759L11.45 15.8259Z" fill="#FF711F"/>
</g>
</svg>
