<?xml version="1.0" standalone="no"?>
<!DOCTYPE svg PUBLIC "-//W3C//DTD SVG 20010904//EN"
 "http://www.w3.org/TR/2001/REC-SVG-20010904/DTD/svg10.dtd">
<svg version="1.0" xmlns="http://www.w3.org/2000/svg"
 width="556.000000pt" height="556.000000pt" viewBox="0 0 556.000000 556.000000"
 preserveAspectRatio="xMidYMid meet">
<metadata>
Created by potrace 1.14, written by Peter Selinger 2001-2017
</metadata>
<g transform="translate(0.000000,556.000000) scale(0.100000,-0.100000)"
fill="#000000" stroke="none">
<path d="M0 2780 l0 -2780 2780 0 2780 0 0 2780 0 2780 -2780 0 -2780 0 0
-2780z m1199 -89 c88 -202 161 -371 161 -375 0 -3 -58 -6 -129 -6 l-129 0 -25
63 -25 62 -144 3 -144 3 -24 -66 -24 -65 -129 0 c-106 0 -128 3 -124 14 3 7
76 176 163 375 l158 361 127 0 126 0 162 -369z m719 272 l-3 -98 -107 -3 -108
-3 0 -274 0 -275 -130 0 -130 0 0 275 0 274 -107 3 -108 3 -3 98 -3 97 351 0
351 0 -3 -97z m702 -278 l0 -375 -125 0 -125 0 0 275 0 275 -84 0 -83 0 -7
-31 c-3 -17 -6 -62 -6 -100 0 -146 -30 -282 -78 -352 -39 -58 -91 -81 -185
-81 -42 0 -82 5 -88 11 -7 7 -8 44 -3 107 7 93 7 96 31 96 73 0 92 52 104 280
4 96 9 196 9 223 l0 47 320 0 320 0 0 -375z m754 1 l161 -368 3 371 2 371 125
0 125 0 0 -130 0 -130 120 0 120 0 0 130 0 130 125 0 125 0 0 -375 0 -375
-125 0 -125 0 0 140 0 141 -117 -3 -118 -3 -3 -137 -3 -138 -258 0 -259 0 -23
65 -23 66 -144 -3 -144 -3 -25 -62 -25 -63 -129 0 -128 0 15 37 c33 78 297
679 305 696 9 16 24 17 136 15 l126 -3 161 -369z m1644 277 l-3 -98 -107 -3
-108 -3 0 -274 0 -275 -130 0 -130 0 0 275 0 274 -107 3 -108 3 -3 98 -3 97
351 0 351 0 -3 -97z"/>
<path d="M872 2717 c-18 -45 -32 -86 -32 -90 0 -4 32 -7 70 -7 39 0 70 1 70 3
0 9 -63 163 -69 170 -4 4 -22 -30 -39 -76z"/>
<path d="M3077 2793 c-7 -11 -67 -162 -67 -168 0 -3 32 -5 70 -5 39 0 70 3 70
8 0 7 -60 165 -65 170 -2 2 -5 0 -8 -5z"/>
</g>
</svg>
